<svg xmlns="http://www.w3.org/2000/svg" id="图层_1" data-name="图层 1" viewBox="0 0 324.07 263.55"><defs><style>.cls-1{fill:#c2e5ed}.cls-1,.cls-11,.cls-3,.cls-4,.cls-5,.cls-9{stroke:#231815}.cls-2{font-size:11px}.cls-2,.cls-6,.cls-7{fill:#231815}.cls-2,.cls-7{font-family:AdobeSongStd-Light-GBpc-EUC-H,Adobe Song Std}.cls-3{fill:#c2dbb1}.cls-4{fill:#fcdcbe}.cls-11,.cls-5,.cls-9{fill:none}.cls-7{font-size:10px}.cls-10,.cls-13,.cls-8{font-family:TimesNewRomanPSMT,Times New Roman}.cls-9{stroke-dasharray:4.92 4.92}.cls-10{letter-spacing:-.07em}.cls-11{stroke-dasharray:4.95 4.95}.cls-12,.cls-13{letter-spacing:0}</style></defs><title>token</title><rect width="71.64" height="29.92" x=".5" y=".5" class="cls-1" rx="7.17"/><text class="cls-2" transform="translate(18.63 19.9) scale(1.03 1)">客户端</text><rect width="74.86" height="29.92" x="149.72" y=".5" class="cls-3" rx="7.17"/><text class="cls-2" transform="translate(170.88 20.47) scale(1.03 1)">服务器</text><rect width="73.82" height="29.92" x="249.76" y="1.32" class="cls-4" rx="7.17"/><text class="cls-2" transform="translate(269.53 20.51) scale(1.03 1)">数据库</text><line x1="37.51" x2="37.51" y1="263.55" y2="30.42" class="cls-5"/><line x1="187.15" x2="187.15" y1="263.55" y2="30.42" class="cls-5"/><line x1="286.67" x2="286.67" y1="263.55" y2="31.24" class="cls-5"/><line x1="37.27" x2="186.06" y1="60.24" y2="60.24" class="cls-5"/><polygon points="182.75 64.33 182.07 63.6 185.68 60.24 182.07 56.88 182.75 56.15 187.15 60.24 182.75 64.33" class="cls-6"/><text class="cls-7" transform="translate(44.06 54.9) scale(1.03 1)">登录请求<tspan x="40" y="0" class="cls-8">{username, password}</tspan></text><line x1="187.11" x2="285.58" y1="80.16" y2="80.16" class="cls-5"/><polygon points="282.27 84.25 281.59 83.52 285.2 80.16 281.59 76.8 282.27 76.07 286.67 80.16 282.27 84.25" class="cls-6"/><text class="cls-7" transform="translate(202.14 74.63) scale(1.03 1)">验证用户名密码</text><line x1="188.2" x2="190.7" y1="105.37" y2="105.37" class="cls-5"/><line x1="195.61" x2="281.71" y1="105.37" y2="105.37" class="cls-9"/><line x1="284.17" x2="286.67" y1="105.37" y2="105.37" class="cls-5"/><polygon points="191.51 109.46 192.19 108.73 188.58 105.37 192.19 102.02 191.51 101.28 187.11 105.37 191.51 109.46" class="cls-6"/><text class="cls-7" transform="translate(216.84 99.72) scale(1.03 1)">验证成功</text><line x1="187.11" x2="202.14" y1="120.33" y2="120.33" class="cls-5"/><line x1="202.14" x2="202.14" y1="140.72" y2="119.87" class="cls-5"/><line x1="188.2" x2="202.14" y1="140.54" y2="140.54" class="cls-5"/><polygon points="191.51 144.63 192.19 143.9 188.58 140.54 192.19 137.19 191.51 136.45 187.11 140.54 191.51 144.63" class="cls-6"/><text class="cls-7" transform="translate(207.25 132.94) scale(1.03 1)">生成<tspan x="20" y="0" class="cls-10">T</tspan><tspan x="25.41" y="0" class="cls-8">oken</tspan></text><line x1="38.6" x2="41.1" y1="154.89" y2="154.89" class="cls-5"/><line x1="46.05" x2="182.14" y1="154.89" y2="154.89" class="cls-11"/><line x1="184.61" x2="187.11" y1="154.89" y2="154.89" class="cls-5"/><polygon points="41.91 158.98 42.59 158.25 38.98 154.9 42.59 151.54 41.91 150.81 37.51 154.9 41.91 158.98" class="cls-6"/><text class="cls-7" transform="translate(64.87 148.55) scale(1.03 1)">传递<tspan x="20" y="0" class="cls-10">T</tspan><tspan x="25.41" y="0" class="cls-8">oken</tspan><tspan x="44.85" y="0" class="cls-12">给客户端</tspan></text><line x1="37.51" x2="52.55" y1="169.45" y2="169.45" class="cls-5"/><line x1="52.55" x2="52.55" y1="189.84" y2="168.99" class="cls-5"/><line x1="38.6" x2="52.55" y1="189.66" y2="189.66" class="cls-5"/><polygon points="41.91 193.75 42.59 193.02 38.98 189.66 42.59 186.31 41.91 185.57 37.51 189.66 41.91 193.75" class="cls-6"/><text class="cls-7" transform="translate(57.65 182.05) scale(1.03 1)">存储<tspan x="20" y="0" class="cls-10">T</tspan><tspan x="25.41" y="0" class="cls-8">oken</tspan></text><line x1="37.27" x2="186.06" y1="206.94" y2="206.94" class="cls-5"/><polygon points="182.75 211.03 182.07 210.29 185.68 206.94 182.07 203.58 182.75 202.85 187.15 206.94 182.75 211.03" class="cls-6"/><text class="cls-7" transform="translate(64 201.98) scale(1.03 1)">其他请求(携带<tspan x="63.74" y="0" class="cls-10">T</tspan><tspan x="69.15" y="0" class="cls-13">oken)</tspan></text><line x1="187.15" x2="202.18" y1="218.51" y2="218.51" class="cls-5"/><line x1="202.18" x2="202.18" y1="238.91" y2="218.06" class="cls-5"/><line x1="188.23" x2="202.18" y1="238.73" y2="238.73" class="cls-5"/><polygon points="191.55 242.82 192.23 242.08 188.62 238.73 192.23 235.37 191.55 234.64 187.15 238.73 191.55 242.82" class="cls-6"/><text class="cls-7" transform="translate(207.29 231.12) scale(1.03 1)">验证<tspan x="20" y="0" class="cls-10">T</tspan><tspan x="25.41" y="0" class="cls-8">oken</tspan></text><line x1="38.6" x2="41.1" y1="252.59" y2="252.59" class="cls-5"/><line x1="46.05" x2="182.14" y1="252.59" y2="252.59" class="cls-11"/><line x1="184.61" x2="187.11" y1="252.59" y2="252.59" class="cls-5"/><polygon points="41.91 256.68 42.59 255.95 38.98 252.59 42.59 249.23 41.91 248.5 37.51 252.59 41.91 256.68" class="cls-6"/><text class="cls-7" transform="translate(87.63 246.86) scale(1.03 1)">返回数据</text></svg>